<?xml version="1.0" encoding="UTF-8"?>
<!-- Created with Inkscape (http://www.inkscape.org/) -->
<svg width="231.66" height="63.793" version="1.1" viewBox="0 0 231.66 63.793" xmlns="http://www.w3.org/2000/svg" xmlns:xlink="http://www.w3.org/1999/xlink">
 <defs>
  <clipPath id="clipPath110">
   <path d="m0 926.26h612v-926.26h-612z"/>
  </clipPath>
  <clipPath id="clipPath144">
   <path d="m258.67 676.82-1.812 0.082-1.649-1.648-1.927-1.906 1.927-1.906 1.638-1.638 1.823 0.072 7.45-7.306 0.886 0.886-9.891 9.892 9.901 9.901-0.885 0.886z"/>
  </clipPath>
  <linearGradient id="linearGradient156" x2="1" gradientTransform="matrix(11.808 -11.808 -11.808 -11.808 259.2 679.25)" gradientUnits="userSpaceOnUse">
   <stop stop-color="#e32f91" offset="0"/>
   <stop stop-color="#e32f91" offset=".059717"/>
   <stop stop-color="#1e91cf" offset="1"/>
  </linearGradient>
  <clipPath id="clipPath166">
   <path d="m254.65 680.85-1.813 0.082-5.708-5.688-1.927-1.927 1.927-1.926 5.708-5.688 1.813 0.083 7.46-7.316 0.897 0.896-13.951 13.951 13.951 13.951-0.887 0.887z"/>
  </clipPath>
  <linearGradient id="linearGradient178" x2="1" gradientTransform="matrix(15.878 -15.878 -15.878 -15.878 253.14 681.25)" gradientUnits="userSpaceOnUse">
   <stop stop-color="#e32f91" offset="0"/>
   <stop stop-color="#e32f91" offset=".059717"/>
   <stop stop-color="#1e91cf" offset="1"/>
  </linearGradient>
  <clipPath id="clipPath188">
   <path d="m243.23 687.23-9.891 9.891-0.886-0.885 7.305-7.45-0.072-1.823 1.638-1.639 1.906-1.927 1.906 1.927 1.649 1.649-0.083 1.813 7.315 7.46-0.885 0.886z"/>
  </clipPath>
  <linearGradient id="linearGradient200" x2="1" gradientTransform="matrix(-11.808 11.808 -11.808 -11.808 249.14 689.31)" gradientUnits="userSpaceOnUse">
   <stop stop-color="#e32f91" offset="0"/>
   <stop stop-color="#e32f91" offset=".059717"/>
   <stop stop-color="#1e91cf" offset="1"/>
  </linearGradient>
  <clipPath id="clipPath210">
   <path d="m243.2 679.16-13.95 13.95-0.897-0.896 7.315-7.459-0.082-1.814 5.688-5.708 1.926-1.926 1.927 1.926 5.687 5.708-0.081 1.814 7.304 7.47-0.886 0.885z"/>
  </clipPath>
  <linearGradient id="linearGradient222" x2="1" gradientTransform="matrix(-15.878 15.878 -15.878 -15.878 251.14 683.25)" gradientUnits="userSpaceOnUse">
   <stop stop-color="#e32f91" offset="0"/>
   <stop stop-color="#e32f91" offset=".059717"/>
   <stop stop-color="#1e91cf" offset="1"/>
  </linearGradient>
  <clipPath id="clipPath232">
   <path d="m241.16 661.2-1.649-1.649 0.083-1.813-7.316-7.46 0.886-0.886 9.902 9.902 9.891-9.892 0.886 0.886-7.305 7.45 0.072 1.823-1.638 1.639-1.906 1.926z"/>
  </clipPath>
  <linearGradient id="linearGradient244" x2="1" gradientTransform="matrix(11.808 -11.808 11.808 11.808 237.16 657.22)" gradientUnits="userSpaceOnUse">
   <stop stop-color="#e32f91" offset="0"/>
   <stop stop-color="#e32f91" offset=".059717"/>
   <stop stop-color="#1e91cf" offset="1"/>
  </linearGradient>
  <clipPath id="clipPath254">
   <path d="m241.18 669.29-5.687-5.707 0.082-1.814-7.305-7.47 0.886-0.885 13.951 13.95 13.951-13.95 0.896 0.896-7.315 7.459 0.082 1.814-5.687 5.707-1.927 1.927z"/>
  </clipPath>
  <linearGradient id="linearGradient266" x2="1" gradientTransform="matrix(15.878 -15.878 15.878 15.878 235.16 663.28)" gradientUnits="userSpaceOnUse">
   <stop stop-color="#e32f91" offset="0"/>
   <stop stop-color="#e32f91" offset=".059717"/>
   <stop stop-color="#1e91cf" offset="1"/>
  </linearGradient>
  <clipPath id="clipPath276">
   <path d="m219.3 683.07 9.891-9.891-9.902-9.902 0.887-0.885 7.459 7.315 1.813-0.082 1.649 1.648 1.927 1.906-1.927 1.906-1.638 1.638-1.824-0.072-7.449 7.306z"/>
  </clipPath>
  <linearGradient id="linearGradient288" x2="1" gradientTransform="matrix(-11.808 11.808 11.808 11.808 227.11 667.27)" gradientUnits="userSpaceOnUse">
   <stop stop-color="#e32f91" offset="0"/>
   <stop stop-color="#e32f91" offset=".059717"/>
   <stop stop-color="#1e91cf" offset="1"/>
  </linearGradient>
  <clipPath id="clipPath298">
   <path d="m223.3 687.16 13.951-13.951-13.951-13.95 0.886-0.887 7.47 7.306 1.814-0.083 5.707 5.688 1.927 1.926-1.927 1.927-5.707 5.688-1.814-0.083-7.46 7.315z"/>
  </clipPath>
  <linearGradient id="linearGradient310" x2="1" gradientTransform="matrix(-15.878 15.878 15.878 15.878 233.17 665.27)" gradientUnits="userSpaceOnUse">
   <stop stop-color="#e32f91" offset="0"/>
   <stop stop-color="#e32f91" offset=".059717"/>
   <stop stop-color="#1e91cf" offset="1"/>
  </linearGradient>
  <clipPath id="clipPath88-9">
   <path d="m171.45 143.58-11.756-11.714-3.968-3.968 3.968-3.968 11.756-11.714 3.735 0.17 15.384-15.045 1.825 1.824-28.732 28.733 28.732 28.732-1.846 1.846-15.363-15.066zm-48.774 25.304-1.825-1.825 15.045-15.385-0.169-3.735 11.713-11.756 3.968-3.968 3.969 3.968 11.713 11.756-0.17 3.735 15.067 15.363-1.846 1.847-28.733-28.733zm8.276 8.275-1.825-1.824 15.067-15.364-0.17-3.735 3.395-3.395 3.926-3.968 3.926 3.968 3.373 3.374-0.148 3.756 15.045 15.342-1.825 1.825-20.371-20.371zm48.774-42.025-3.374-3.374-3.968-3.926 3.968-3.926 3.395-3.395 3.735 0.17 15.363-15.066 1.825 1.824-20.392 20.393 20.371 20.371-1.825 1.826-15.342-15.046zm-56.426-14.263 3.374 3.374 3.968 3.926-3.968 3.925-3.395 3.396-3.735-0.17-15.363 15.066-1.825-1.825 20.392-20.392-20.371-20.372 1.825-1.825 15.342 15.045zm8.276-8.446 11.756 11.714 3.968 3.968-3.968 3.968-11.756 11.714-3.735-0.17-15.384 15.045-1.825-1.825 28.732-28.732-28.732-28.732 1.846-1.846 15.364 15.066zm27.426-12.657-3.395 3.395-3.926 3.969-3.926-3.968-3.374-3.374 0.149-3.756-15.045-15.342 1.825-1.826 20.371 20.372 20.393-20.393 1.825 1.825-15.066 15.364zm8.297 8.298-11.713 11.756-3.968 3.968-3.969-3.968-11.713-11.756 0.17-3.735-15.067-15.364 1.846-1.846 28.733 28.732 28.732-28.732 1.825 1.825-15.045 15.385z"/>
  </clipPath>
  <linearGradient id="linearGradient840" x2="1" gradientTransform="matrix(0 98.314 98.314 0 151.52 78.847)" gradientUnits="userSpaceOnUse">
   <stop stop-color="#e32f91" offset="0"/>
   <stop stop-color="#e32f91" offset=".059717"/>
   <stop stop-color="#1e91cf" offset="1"/>
  </linearGradient>
 </defs>
 <g transform="matrix(1.3333 0 0 -1.3333 -293 929.6)">
  <g display="none">
   <g clip-path="url(#clipPath144)">
    <path d="m258.67 676.82-1.812 0.082-1.649-1.648-1.927-1.906 1.927-1.906 1.638-1.638 1.823 0.072 7.45-7.306 0.886 0.886-9.891 9.892 9.901 9.901-0.885 0.886z" fill="url(#linearGradient156)"/>
   </g>
   <g clip-path="url(#clipPath166)">
    <path d="m254.65 680.85-1.813 0.082-5.708-5.688-1.927-1.927 1.927-1.926 5.708-5.688 1.813 0.083 7.46-7.316 0.897 0.896-13.951 13.951 13.951 13.951-0.887 0.887z" fill="url(#linearGradient178)"/>
   </g>
   <g clip-path="url(#clipPath188)">
    <path d="m243.23 687.23-9.891 9.891-0.886-0.885 7.305-7.45-0.072-1.823 1.638-1.639 1.906-1.927 1.906 1.927 1.649 1.649-0.083 1.813 7.315 7.46-0.885 0.886z" fill="url(#linearGradient200)"/>
   </g>
   <g clip-path="url(#clipPath210)">
    <path d="m243.2 679.16-13.95 13.95-0.897-0.896 7.315-7.459-0.082-1.814 5.688-5.708 1.926-1.926 1.927 1.926 5.687 5.708-0.081 1.814 7.304 7.47-0.886 0.885z" fill="url(#linearGradient222)"/>
   </g>
   <g clip-path="url(#clipPath232)">
    <path d="m241.16 661.2-1.649-1.649 0.083-1.813-7.316-7.46 0.886-0.886 9.902 9.902 9.891-9.892 0.886 0.886-7.305 7.45 0.072 1.823-1.638 1.639-1.906 1.926z" fill="url(#linearGradient244)"/>
   </g>
   <g clip-path="url(#clipPath254)">
    <path d="m241.18 669.29-5.687-5.707 0.082-1.814-7.305-7.47 0.886-0.885 13.951 13.95 13.951-13.95 0.896 0.896-7.315 7.459 0.082 1.814-5.687 5.707-1.927 1.927z" fill="url(#linearGradient266)"/>
   </g>
   <g clip-path="url(#clipPath276)">
    <path d="m219.3 683.07 9.891-9.891-9.902-9.902 0.887-0.885 7.459 7.315 1.813-0.082 1.649 1.648 1.927 1.906-1.927 1.906-1.638 1.638-1.824-0.072-7.449 7.306z" fill="url(#linearGradient288)"/>
   </g>
   <g clip-path="url(#clipPath298)">
    <path d="m223.3 687.16 13.951-13.951-13.951-13.95 0.886-0.887 7.47 7.306 1.814-0.083 5.707 5.688 1.927 1.926-1.927 1.927-5.707 5.688-1.814-0.083-7.46 7.315z" fill="url(#linearGradient310)"/>
   </g>
  </g>
  <g>
   <g clip-path="url(#clipPath110)">
    <g transform="translate(287.65 672.94)">
     <path d="m0 0c0 3.769-2.664 6.348-6.207 6.348-3.542 0-6.207-2.579-6.207-6.348s2.665-6.348 6.207-6.348c3.543 0 6.207 2.579 6.207 6.348m-17.061 0c0 5.895 4.591 10.259 10.854 10.259 6.235 0 10.855-4.336 10.855-10.259s-4.62-10.259-10.855-10.259c-6.263 0-10.854 4.364-10.854 10.259" fill="#26225b"/>
    </g>
    <g transform="translate(305.87 670.64)">
     <path d="m0 0c0 2.635-1.672 4.223-3.883 4.223-2.21 0-3.883-1.588-3.883-4.223 0-2.636 1.673-4.223 3.883-4.223 2.211 0 3.883 1.587 3.883 4.223m4.478 0c0-4.79-3.316-7.85-7.595-7.85-1.899 0-3.458 0.595-4.592 1.842v-7.114h-4.421v20.746h4.223v-1.758c1.105 1.333 2.749 1.985 4.79 1.985 4.279 0 7.595-3.061 7.595-7.851" fill="#26225b"/>
    </g>
    <g transform="translate(315.42 671.98)">
     <path d="m0 0h7.51c-0.312 1.927-1.757 3.174-3.741 3.174-2.012 0-3.457-1.218-3.769-3.174m11.591-2.579h-11.535c0.426-1.899 2.041-3.061 4.365-3.061 1.616 0 2.777 0.482 3.826 1.474l2.353-2.55c-1.417-1.616-3.543-2.466-6.292-2.466-5.272 0-8.701 3.316-8.701 7.85 0 4.563 3.486 7.851 8.134 7.851 4.478 0 7.935-3.004 7.935-7.907 0-0.341-0.056-0.823-0.085-1.191" fill="#26225b"/>
    </g>
    <g transform="translate(344.5 671.75)">
     <path d="m0 0v-8.729h-4.421v8.048c0 2.466-1.134 3.6-3.089 3.6-2.126 0-3.656-1.304-3.656-4.11v-7.538h-4.421v15.247h4.222v-1.785c1.191 1.303 2.976 2.012 5.045 2.012 3.599 0 6.32-2.097 6.32-6.745" fill="#26225b"/>
    </g>
    <g transform="translate(360.68 668.92)">
     <path d="m0 0c0 1.672-1.275 2.466-3.656 2.466h-5.357v-4.903h5.357c2.381 0 3.656 0.737 3.656 2.437m-9.013 10.486v-4.676h4.564c2.238 0 3.457 0.794 3.457 2.352 0 1.559-1.219 2.324-3.457 2.324zm13.633-10.968c0-3.429-2.721-5.413-7.936-5.413h-10.26v19.838h9.693c4.96 0 7.511-2.068 7.511-5.157 0-1.984-1.021-3.515-2.636-4.365 2.211-0.709 3.628-2.409 3.628-4.903" fill="#26225b"/>
    </g>
    <path d="m368.22 682.86h4.592v-19.839h-4.592z" fill="#26225b"/>
    <g transform="translate(374.57 672.94)">
     <path d="m0 0c0 5.98 4.591 10.259 10.77 10.259 3.429 0 6.291-1.247 8.162-3.514l-2.948-2.721c-1.332 1.531-3.004 2.324-4.988 2.324-3.712 0-6.349-2.607-6.349-6.348s2.637-6.348 6.349-6.348c1.984 0 3.656 0.793 4.988 2.352l2.948-2.721c-1.871-2.296-4.733-3.542-8.191-3.542-6.15 0-10.741 4.279-10.741 10.259" fill="#26225b"/>
    </g>
   </g>
   <g transform="matrix(.48069 0 0 .48665 170.55 610.98)">
    <g clip-path="url(#clipPath88-9)">
     <path d="m171.45 143.58-11.756-11.714-3.968-3.968 3.968-3.968 11.756-11.714 3.735 0.17 15.384-15.045 1.825 1.824-28.732 28.733 28.732 28.732-1.846 1.846-15.363-15.066zm-48.774 25.304-1.825-1.825 15.045-15.385-0.169-3.735 11.713-11.756 3.968-3.968 3.969 3.968 11.713 11.756-0.17 3.735 15.067 15.363-1.846 1.847-28.733-28.733zm8.276 8.275-1.825-1.824 15.067-15.364-0.17-3.735 3.395-3.395 3.926-3.968 3.926 3.968 3.373 3.374-0.148 3.756 15.045 15.342-1.825 1.825-20.371-20.371zm48.774-42.025-3.374-3.374-3.968-3.926 3.968-3.926 3.395-3.395 3.735 0.17 15.363-15.066 1.825 1.824-20.392 20.393 20.371 20.371-1.825 1.826-15.342-15.046zm-56.426-14.263 3.374 3.374 3.968 3.926-3.968 3.925-3.395 3.396-3.735-0.17-15.363 15.066-1.825-1.825 20.392-20.392-20.371-20.372 1.825-1.825 15.342 15.045zm8.276-8.446 11.756 11.714 3.968 3.968-3.968 3.968-11.756 11.714-3.735-0.17-15.384 15.045-1.825-1.825 28.732-28.732-28.732-28.732 1.846-1.846 15.364 15.066zm27.426-12.657-3.395 3.395-3.926 3.969-3.926-3.968-3.374-3.374 0.149-3.756-15.045-15.342 1.825-1.826 20.371 20.372 20.393-20.393 1.825 1.825-15.066 15.364zm8.297 8.298-11.713 11.756-3.968 3.968-3.969-3.968-11.713-11.756 0.17-3.735-15.067-15.364 1.846-1.846 28.733 28.732 28.732-28.732 1.825 1.825-15.045 15.385z" fill="url(#linearGradient840)"/>
    </g>
   </g>
  </g>
 </g>
</svg>
